<svg width="40" height="45" viewBox="0 0 40 45" fill="none" xmlns="http://www.w3.org/2000/svg">
<path d="M39.6406 10.9922C39.6406 13.2013 37.8498 14.9922 35.6406 14.9922H25.5283C24.6567 14.9922 23.9502 15.6987 23.9502 16.5703C23.9502 17.4419 24.6567 18.1484 25.5283 18.1484H25.6016C26.5136 18.1484 27.2529 18.8878 27.2529 19.7998V40.9775C27.2529 43.1867 25.4621 44.9775 23.2529 44.9775H16.3877C14.1786 44.9775 12.3877 43.1867 12.3877 40.9775V19.7998C12.3877 18.8878 13.127 18.1484 14.0391 18.1484H14.1123C14.9839 18.1484 15.6904 17.4419 15.6904 16.5703C15.6904 15.6987 14.9839 14.9922 14.1123 14.9922H4C1.79086 14.9922 0 13.2013 0 10.9922V4C0 1.79086 1.79086 0 4 0H35.6406C37.8498 0 39.6406 1.79086 39.6406 4V10.9922Z" fill="#222222"/>
</svg>
